<?xml version="1.0" standalone="no"?>
<!DOCTYPE svg PUBLIC "-//W3C//DTD SVG 20010904//EN"
 "http://www.w3.org/TR/2001/REC-SVG-20010904/DTD/svg10.dtd">
<svg version="1.0" xmlns="http://www.w3.org/2000/svg"
 width="256.000000pt" height="256.000000pt" viewBox="0 0 256.000000 256.000000"
 preserveAspectRatio="xMidYMid meet">
<metadata>
Created by potrace 1.14, written by Peter Selinger 2001-2017
</metadata>
<g transform="translate(0.000000,256.000000) scale(0.100000,-0.100000)"
fill="#000000" stroke="none">
<path d="M22 2407 c-27 -29 -28 -58 -2 -82 20 -18 20 -31 20 -655 0 -587 -1
-640 -17 -671 -15 -27 -18 -60 -18 -169 0 -118 3 -139 21 -170 15 -27 28 -36
55 -40 l34 -5 5 -155 c6 -175 16 -208 86 -270 80 -70 5 -65 1074 -65 l965 0
55 31 c60 33 112 99 130 162 5 20 10 96 10 169 l0 132 32 3 c24 2 38 12 55 37
21 31 23 45 23 170 0 101 -4 143 -15 165 -13 24 -15 120 -15 668 l0 639 22 29
c18 25 20 33 10 55 -7 14 -23 30 -36 37 -58 26 -104 -53 -60 -103 12 -13 14
-117 14 -642 0 -551 -2 -627 -15 -627 -11 0 -15 12 -15 48 0 106 -62 205 -154
248 l-51 24 -951 0 c-694 0 -960 -3 -985 -12 -54 -18 -112 -64 -143 -114 -23
-37 -30 -61 -34 -120 -3 -54 -8 -74 -18 -74 -12 0 -14 103 -14 629 0 546 2
630 15 641 23 19 19 76 -7 94 -31 22 -51 20 -76 -7z m716 -1397 c47 -29 91
-127 99 -219 15 -174 -57 -321 -157 -321 -32 0 -46 7 -74 35 -82 81 -102 300
-40 423 30 59 80 102 118 102 12 0 36 -9 54 -20z m1183 -2 c87 -58 125 -248
80 -397 -82 -270 -314 -125 -288 180 8 92 52 190 99 219 43 26 67 25 109 -2z"/>
</g>
</svg>
